<?xml version="1.0" encoding="utf-8"?>
<!-- Generator: Adobe Illustrator 17.0.0, SVG Export Plug-In . SVG Version: 6.00 Build 0)  -->
<!DOCTYPE svg PUBLIC "-//W3C//DTD SVG 1.1//EN" "http://www.w3.org/Graphics/SVG/1.1/DTD/svg11.dtd">
<svg version="1.1" id="Layer_1" xmlns="http://www.w3.org/2000/svg" xmlns:xlink="http://www.w3.org/1999/xlink" x="0px" y="0px"
	 width="529px" height="529px" viewBox="0 0 529 529" enable-background="new 0 0 529 529" xml:space="preserve">
<path d="M477.133,385.637c-11.075-21.097-26.65-59.223-24.327-59.905c8.309-12.577,76.424-83.404,69.936-142.382
	c-4.505-40.95-56.603-65.258-68.827-70.073c5.187-45.92-29.742-86.039-90.607-89.951c-85.875-5.521-191.774,129.062-207.21,167.612
	c-4.042,10.095,4.354,26.188,14.767,23.518c7.451-1.912,20.795-28.304,16.547-30.305c-6.892-2.69-7.838,3.863-12.719,4.6
	c-0.001-13.685,40.579-78.347,123.836-129.845c17.812-11.018,47.439-24.824,76.332-21.648c55.68,6.121,62.37,66.936,61.481,69.729
	c-18.355-5.97-34.138-8.569-43.434-7.929c-8.203,1.43-10.903,3.942-15.314,7.657c-4.99,4.204-10.397,15.582-7.109,25.158
	c2.611,7.604,14.126,13.29,20.783,10.938c1.909-0.674,14.994-9.001,2.018-20.207c10.911-10.91,23.295-3.265,41.585,1.535
	c-13.03,49.677-47.531,80.64-77.266,83.982c-20.613,2.316-24.475-6.193-29.778-31.402c-3.084-21.06-4.851-33.505-5.469-56.878
	c-3.871-1.043-5.348-2.053-10.939,1.641c-3.592,4.429-7.592,8.449-12.032,12.032c-0.66,0.591-3.806,1.575-4.376,3.828
	c0.11,6.1,3.83,3.007,8.751,3.282c0.133,0.046,0.489,0.36,0.992,1.082c0.226-0.128,0.468-0.096,0.697-0.22
	c-18.667,10.575-31.517,38.667-33.41,56.562c-2.987,3.599-18.948,22.496-25.093,28.459c-18.071-6.005-40.986-10.646-38.678-28.398
	c0.657-5.052,4.128-8.454,11.268-9.905c13.922-2.828,7.211,20.422,12.032,24.064c5.36,0.896,8.558-4.629,9.113-8.57
	c1.785-12.675-5.455-25.017-18.283-23.148c-13.689,2.128-21.756,8.779-24.155,19.82c-4.479,20.611-1.278,21.625,38.915,37.444
	c-7.216,6.764-30.019,19.942-29.653,24.77c0.528,5.098,1.623,8.327,4.068,11.302c-6.652,6.045-10.248,23.254-19.382,23.152
	c-28.145-0.314-13.018-60.988-18.523-68.851c-7.708-11.011-9.879,1.869-15.727,9.437c-4.209,5.445-15.309,10.897-13.33,14.022
	c2.838,6.017,6.081,4.149,10.938,2.187c8.118,4.715-2.244,57.376,26.798,57.426c18.967,0.032,26.283-24.425,33.159-33.532
	c0-0.003,0.817,0.601,0.817,0.598c15.475,13.175,49.245-3.478,50.161-27.298c0.301-7.814-10.471-21.331-13.546-22.294
	c2.227-2.77,16.675-13.776,19.864-16.492c0.343,15.709,4.75,22.561,18.927,21.356c15.925-1.353,25.573-16.826,27.84-30.325
	c0.139,0.402,8.141,15.341,35.6,12.824c36.591-3.355,77.332-33.199,94.83-87.15c14.199,5.364,41.004,21.61,53.53,39.458
	c31.454,44.823-52.938,149.808-54.718,150.352c-6.521-15.141-9.819-26.887-12.7-46.875c-2.564-17.798-2.157-50.369-7.146-53.733
	c-13.75-7.992-12.975,11.599-21.606,20.062c-3.34,3.275-8.064,8.686-5.155,12.342c6.472,1.91,11.035-9.6,14.168-5.73
	c6.962,11.519,10.406,25.832,10.529,45.769c-0.196,4.424-5.946,11.594-9.931,12.463c-17.953,3.915-19.557-48.931-27.892-49.222
	c-7.56-0.264-4.984,7.075-7.657,15.315c-2.128,6.557-15.364,15.546-5.469,17.5c6.717,0.799,7.405-7.162,10.939-4.922
	c5.411,6.311,6.988,27.935,4.922,38.283c-2.449,12.262-12.977,23.189-21.654,30.019c-19.632-16.875-63.57-0.656-80.378-15.498
	c-3.119-2.754-8.454-8.356-8.847-17.596c-0.685-16.106,19.067-31.326,24.064-31.323c-0.399,32.024,30.43,24.267,40.328,19.631
	c16.8-7.869,13.895-26.831,4.922-37.189c-7.118-8.215-33.813-3.223-33.818-3.211c0.001-0.004,5.886-11.492,12.488-15.931
	c14.366,8.538,20.501-17.211,9.846-22.971c-12.022-0.245-17.28,6.919-21.877,14.22c-4.829,7.669-6.067,13.286-10.322,25.772
	c-39.585,11.625-33.692,34.56-50.02,57.643c-48.047,67.926-115.727,5.556-121.778-0.83c-7.419-38.796-19.841-81.191-34.304-119.963
	c26.812-9.981,96.984-54.963,53.745-79.574c-40.906-23.282-85.591,23.199-72.191,63.706c0.186,0.661,2.073,5.585,3.096,8.745
	c-23.78,7.958-47.756,16.148-58.333,30.085c-6.197,8.165-4.362,27.692,9.298,22.97c5.705-3.437,8.235-8.338,4.168-12.501
	c-2.224-2.129-9.375,4.936-7.997,0.469c0.786-5.756,28.848-18.964,56.398-30.344c10.862,32.404,32.259,92.017,33.465,108.401
	c-32.386-31.507-90.689-27.55-106.023,7.458c-6.333,18.413-1.87,37.22,7.11,48.675c22.688,28.938,96.409,17.971,109.928-24.285
	c18.707,13.476,81.372,49.414,134.451-14.27c9.818,23.836,28.102,26.49,48.153,23.247c15.583-2.521,32.249-2.778,41.628,2.182
	c0.578,0.305,1.142,0.668,1.689,1.085c-0.412,0.113-0.829,0.267-1.246,0.469c-4.758,2.307-17.886,8.493-23.96,10.478
	c-9.281,3.033-67.722,17.539-70.004,35.55c-3.295,25.98,23.108,50.919,47.307,52.605c22.156,1.543,79.094-28.252,76.293-76.122
	c-0.56-9.579-2.647-18.445-7.647-24.332c26.568-23.342,20.081-37.792,20.226-48.407c1.624,4.226,3.395,5.872,7.11,7.109
	c14.37,4.784,19.53-12.123,23.517-21.33c3.176,11.075,5.26,20.096,10.203,32.253c-5.25,5.443-10.721,13.861-15.91,20.007
	c-12.859,15.231-27.159,38.613-33.124,63.684c-2.547,10.707-4.86,22.237-3.828,34.455c2.438,28.874,22.698,70.142,49.533,65.128
	c72.248-22.116,56.624-82.153,53.286-93.566C487.592,405.823,481.989,394.887,477.133,385.637z M254.541,259.302
	c-1.455,7.789-11.294,17.583-20.783,16.954c-11.53-0.764-11.287-16.204-4.477-22.758c5.897-5.677,9.952-9.289,15.271-13.169
	C252.515,245.092,256.034,251.317,254.541,259.302z M316.61,193.948c-3.564,6.644-7.758,23.412-16.127,27.617
	c-15.266,7.669-14.829-24.465-10.938-37.736c5.728-17.494,20.134-31.946,20.295-30.959c0.688,7.946,4.588,29.975,6.771,41.08
	C316.61,193.949,316.61,193.949,316.61,193.948z M317.042,264.994c-0.047,0.122-0.084,0.219-0.108,0.281
	C316.957,265.213,316.995,265.117,317.042,264.994z M349.703,286.101c0.843,15.811-18.643,21.022-27.892,11.484
	c-4.329-4.463-6.534-10.327-7.042-16.502C324.598,277.293,348.564,264.744,349.703,286.101z M94.598,187.46
	c-4.158-15.905-3.073-32.123,5.278-42.445c26.245-32.437,56.889-8.637,39.785,20.459c-7.667,9.633-24.216,19.842-43.334,26.403
	C95.753,190.397,95.177,188.923,94.598,187.46z M42.342,362.668C3.031,311.54,91,295,122.754,340.285
	C113.333,366,54.972,379.094,42.342,362.668z M367.752,410.795c-43.296,66.963-101.093,3.857-68.364-14.766
	c4.636-2.638,49.543-16.468,65.751-29.374C371.5,379.039,374.429,400.469,367.752,410.795z M468.778,481.185
	c-6.66,9.157-21.212,23.281-35.092,21.822c-17.693-2.359-62.27-72.05,10.271-169.063c6.958,16.636,15.236,32.963,22.237,48.413
	C475.49,402.87,494.728,445.504,468.778,481.185z"/>
</svg>
